<svg width="85" height="45" viewBox="0 0 85 45" fill="none" xmlns="http://www.w3.org/2000/svg">
<rect width="85" height="45" rx="10" fill="#333438"/>
<path fill-rule="evenodd" clip-rule="evenodd" d="M37.8337 19.7712C37.4097 19.7712 36.9899 19.8548 36.5981 20.017C36.2064 20.1793 35.8505 20.4171 35.5507 20.7169C35.2508 21.0167 35.013 21.3727 34.8508 21.7644C34.6885 22.1561 34.605 22.576 34.605 23C34.605 23.424 34.6885 23.8439 34.8508 24.2356C35.013 24.6273 35.2508 24.9833 35.5507 25.2831C35.8505 25.5829 36.2064 25.8207 36.5981 25.983C36.9899 26.1452 37.4097 26.2288 37.8337 26.2288H41.0625V23.065C41.062 23.0217 41.062 22.9783 41.0625 22.935V19.7712H37.8337ZM41.0625 17.8962H37.8337C36.9772 17.8962 36.1558 17.556 35.5502 16.9504C34.9446 16.3448 34.6044 15.5234 34.6044 14.6669C34.6044 13.8104 34.9446 12.989 35.5502 12.3834C36.1558 11.7777 36.9772 11.4375 37.8337 11.4375H41.0625V17.8962ZM42.9375 11.4375V17.8962H46.1662C47.0117 17.8796 47.8169 17.5321 48.409 16.9283C49.0011 16.3244 49.3327 15.5125 49.3327 14.6669C49.3327 13.8212 49.0011 13.0093 48.409 12.4055C47.8169 11.8017 47.0117 11.4541 46.1662 11.4375H42.9375ZM46.1662 19.77C45.3187 19.7699 44.5051 20.103 43.9011 20.6975C43.297 21.292 42.9509 22.1001 42.9375 22.9475V23.0513C42.9478 23.6875 43.1459 24.3065 43.507 24.8305C43.868 25.3545 44.3758 25.7602 44.9666 25.9965C45.5574 26.2329 46.2049 26.2894 46.8277 26.1589C47.4505 26.0285 48.0209 25.7169 48.4672 25.2633C48.9135 24.8098 49.2159 24.2344 49.3362 23.6096C49.4566 22.9847 49.3897 22.3383 49.1439 21.7513C48.898 21.1644 48.4842 20.6632 47.9545 20.3107C47.4247 19.9582 46.8026 19.7701 46.1662 19.77ZM37.8337 28.1038C37.1948 28.1035 36.5702 28.2927 36.0389 28.6475C35.5076 29.0023 35.0934 29.5066 34.8487 30.0968C34.604 30.687 34.5399 31.3365 34.6644 31.9631C34.7889 32.5898 35.0964 33.1654 35.5481 33.6173C35.9998 34.0691 36.5753 34.3769 37.2019 34.5016C37.8285 34.6263 38.478 34.5624 39.0683 34.318C39.6585 34.0736 40.1631 33.6596 40.518 33.1284C40.873 32.5972 41.0625 31.9726 41.0625 31.3337V28.1038H37.8337Z" fill="white"/>
</svg>
