<svg width="85" height="45" viewBox="0 0 85 45" fill="none" xmlns="http://www.w3.org/2000/svg">
<rect width="85" height="45" rx="10" fill="#333438"/>
<path d="M38.4153 37.0625C38.2582 37.0626 38.103 37.0283 37.9606 36.9621C37.8181 36.8958 37.692 36.7992 37.5909 36.6789C37.4898 36.5587 37.4163 36.4178 37.3755 36.2661C37.3347 36.1144 37.3276 35.9557 37.3547 35.8009V35.7945L39.0018 26.75H32.625C32.448 26.7499 32.2746 26.6998 32.1249 26.6054C31.9752 26.511 31.8553 26.3761 31.7791 26.2163C31.7028 26.0566 31.6734 25.8785 31.6941 25.7028C31.7148 25.527 31.7848 25.3606 31.8961 25.223L44.7381 9.34762C44.8843 9.16207 45.0872 9.0295 45.3159 8.97018C45.5445 8.91087 45.7863 8.92808 46.0042 9.01917C46.2222 9.11027 46.4043 9.27024 46.5227 9.47463C46.6411 9.67901 46.6893 9.91656 46.66 10.1509C46.66 10.1685 46.6553 10.1855 46.6524 10.2031L44.9994 19.25H51.375C51.552 19.25 51.7254 19.3001 51.8751 19.3945C52.0248 19.489 52.1447 19.6239 52.221 19.7836C52.2972 19.9433 52.3267 20.1214 52.306 20.2972C52.2853 20.473 52.2152 20.6393 52.1039 20.7769L39.2602 36.6523C39.1593 36.7798 39.0309 36.8829 38.8846 36.9539C38.7383 37.025 38.5779 37.062 38.4153 37.0625Z" fill="white"/>
</svg>
