<svg width="41" height="41" viewBox="0 0 41 41" fill="none" xmlns="http://www.w3.org/2000/svg">
<g id="material-symbols:hide-source-outline">
<path id="Vector" d="M33.7823 38.651L29.8958 34.7645C28.5007 35.6757 27.0133 36.3732 25.4336 36.8573C23.854 37.3413 22.2095 37.5833 20.5 37.5833C18.1368 37.5833 15.916 37.1346 13.8375 36.2371C11.759 35.3397 9.95102 34.1228 8.41352 32.5864C6.87602 31.0489 5.65912 29.2409 4.76281 27.1625C3.86651 25.084 3.41779 22.8632 3.41665 20.5C3.41665 18.7916 3.65866 17.1471 4.14269 15.5663C4.62672 13.9855 5.32429 12.4981 6.2354 11.1041L2.34894 7.21767L4.78331 4.78329L36.2166 36.2166L33.7823 38.651ZM20.5 34.1666C21.7243 34.1666 22.9127 34.01 24.0653 33.6968C25.2178 33.3836 26.3356 32.9138 27.4187 32.2875L8.71248 13.5812C8.08609 14.6632 7.6163 15.7804 7.3031 16.933C6.98991 18.0855 6.83331 19.2745 6.83331 20.5C6.83331 24.2868 8.1641 27.5115 10.8257 30.1743C13.4873 32.837 16.712 34.1678 20.5 34.1666ZM34.7646 29.8958L32.2875 27.4187C32.9139 26.3368 33.3837 25.2189 33.6969 24.0653C34.01 22.9116 34.1666 21.7231 34.1666 20.5C34.1666 16.7132 32.8359 13.4884 30.1743 10.8257C27.5127 8.16295 24.2879 6.83215 20.5 6.83329C19.2757 6.83329 18.0872 6.98989 16.9347 7.30308C15.7821 7.61628 14.6643 8.08607 13.5812 8.71246L11.1041 6.23538C12.4993 5.32427 13.9872 4.6267 15.568 4.14267C17.1488 3.65864 18.7928 3.41663 20.5 3.41663C22.8632 3.41663 25.084 3.86535 27.1625 4.76279C29.241 5.66024 31.0489 6.87714 32.5864 8.4135C34.1239 9.951 35.3414 11.759 36.2389 13.8375C37.1363 15.9159 37.5845 18.1368 37.5833 20.5C37.5833 22.2083 37.3413 23.8528 36.8573 25.4336C36.3732 27.0144 35.6757 28.5018 34.7646 29.8958Z" fill="black"/>
</g>
</svg>
