<svg width="35" height="19" viewBox="0 0 35 19" fill="none" xmlns="http://www.w3.org/2000/svg">
<path d="M10.152 18.288C8.824 18.288 7.592 18.072 6.456 17.64C5.336 17.208 4.36 16.6 3.528 15.816C2.712 15.032 2.072 14.112 1.608 13.056C1.16 12 0.936 10.848 0.936 9.6C0.936 8.352 1.16 7.2 1.608 6.144C2.072 5.088 2.72 4.168 3.552 3.384C4.384 2.6 5.36 1.992 6.48 1.56C7.6 1.128 8.816 0.912 10.128 0.912C11.456 0.912 12.672 1.128 13.776 1.56C14.896 1.992 15.864 2.6 16.68 3.384C17.512 4.168 18.16 5.088 18.624 6.144C19.088 7.184 19.32 8.336 19.32 9.6C19.32 10.848 19.088 12.008 18.624 13.08C18.16 14.136 17.512 15.056 16.68 15.84C15.864 16.608 14.896 17.208 13.776 17.64C12.672 18.072 11.464 18.288 10.152 18.288ZM10.128 14.976C10.88 14.976 11.568 14.848 12.192 14.592C12.832 14.336 13.392 13.968 13.872 13.488C14.352 13.008 14.72 12.44 14.976 11.784C15.248 11.128 15.384 10.4 15.384 9.6C15.384 8.8 15.248 8.072 14.976 7.416C14.72 6.76 14.352 6.192 13.872 5.712C13.408 5.232 12.856 4.864 12.216 4.608C11.576 4.352 10.88 4.224 10.128 4.224C9.376 4.224 8.68 4.352 8.04 4.608C7.416 4.864 6.864 5.232 6.384 5.712C5.904 6.192 5.528 6.76 5.256 7.416C5 8.072 4.872 8.8 4.872 9.6C4.872 10.384 5 11.112 5.256 11.784C5.528 12.44 5.896 13.008 6.36 13.488C6.84 13.968 7.4 14.336 8.04 14.592C8.68 14.848 9.376 14.976 10.128 14.976ZM25.842 8.76H33.906V11.88H25.842V8.76ZM26.13 18H22.242V1.2H34.938V4.32H26.13V18Z" fill="white"/>
</svg>
