<svg width="41" height="41" viewBox="0 0 41 41" fill="none" xmlns="http://www.w3.org/2000/svg">
<g id="solar:bag-linear">
<g id="Group">
<path id="Vector" d="M6.39258 35.1148C8.44258 37.5833 12.2556 37.5833 19.8833 37.5833H21.1167C28.7444 37.5833 32.5591 37.5833 34.6091 35.1148M6.39258 35.1148C4.34258 32.6445 5.04642 28.8965 6.45238 21.3969C7.45175 16.0669 7.95058 13.4002 9.84854 11.8251M34.6091 35.1148C36.6591 32.6445 35.9553 28.8965 34.5493 21.3969C33.55 16.0669 33.0494 13.4002 31.1515 11.8251M31.1515 11.8251C29.2552 10.25 26.5407 10.25 21.1167 10.25H19.8833C14.4593 10.25 11.7465 10.25 9.84854 11.8251" stroke="white" stroke-width="3"/>
<path id="Vector_2" d="M15.375 10.25V8.54163C15.375 7.18239 15.915 5.87883 16.8761 4.9177C17.8372 3.95658 19.1408 3.41663 20.5 3.41663C21.8592 3.41663 23.1628 3.95658 24.1239 4.9177C25.085 5.87883 25.625 7.18239 25.625 8.54163V10.25" stroke="white" stroke-width="3" stroke-linecap="round"/>
</g>
</g>
</svg>
