<svg width="41" height="41" viewBox="0 0 41 41" fill="none" xmlns="http://www.w3.org/2000/svg">
<g id="solar:settings-outline">
<g id="Group">
<path id="Vector" fill-rule="evenodd" clip-rule="evenodd" d="M20.5 14.0938C18.801 14.0938 17.1715 14.7687 15.9701 15.9701C14.7687 17.1715 14.0938 18.801 14.0938 20.5C14.0938 22.199 14.7687 23.8285 15.9701 25.0299C17.1715 26.2313 18.801 26.9062 20.5 26.9062C22.199 26.9062 23.8285 26.2313 25.0299 25.0299C26.2313 23.8285 26.9062 22.199 26.9062 20.5C26.9062 18.801 26.2313 17.1715 25.0299 15.9701C23.8285 14.7687 22.199 14.0938 20.5 14.0938ZM16.6562 20.5C16.6562 19.4806 17.0612 18.5029 17.7821 17.7821C18.5029 17.0612 19.4806 16.6562 20.5 16.6562C21.5194 16.6562 22.4971 17.0612 23.2179 17.7821C23.9388 18.5029 24.3438 19.4806 24.3438 20.5C24.3438 21.5194 23.9388 22.4971 23.2179 23.2179C22.4971 23.9388 21.5194 24.3438 20.5 24.3438C19.4806 24.3438 18.5029 23.9388 17.7821 23.2179C17.0612 22.4971 16.6562 21.5194 16.6562 20.5Z" fill="black"/>
<path id="Vector_2" fill-rule="evenodd" clip-rule="evenodd" d="M20.4573 2.1355C19.6971 2.1355 19.0633 2.1355 18.544 2.16966C18.0131 2.19177 17.4896 2.30144 16.9945 2.49425C16.4243 2.73015 15.9062 3.07606 15.4698 3.51222C15.0333 3.94838 14.6871 4.46625 14.4508 5.03625C14.2031 5.63416 14.1365 6.26625 14.1091 6.953C14.1064 7.20416 14.0399 7.45051 13.9159 7.66894C13.7919 7.88737 13.6144 8.07072 13.4002 8.20179C13.1796 8.32223 12.932 8.38464 12.6807 8.38314C12.4294 8.38165 12.1826 8.31631 11.9635 8.19325C11.3553 7.87208 10.7745 7.61412 10.1321 7.52871C9.52045 7.44825 8.89891 7.48906 8.30301 7.64881C7.7071 7.80856 7.1485 8.08411 6.65909 8.45975C6.24528 8.79267 5.88917 9.1915 5.60504 9.64021C5.31463 10.0741 4.99688 10.6225 4.61763 11.2802L4.57492 11.3554C4.19396 12.0131 3.87792 12.5615 3.649 13.0295C3.40984 13.5181 3.22192 13.9999 3.15359 14.5329C2.99061 15.768 3.3249 17.0173 4.08292 18.0059C4.47754 18.5201 4.99175 18.8942 5.57259 19.2598C5.78913 19.3879 5.96955 19.5689 6.09686 19.7858C6.22417 20.0028 6.29419 20.2486 6.30034 20.5001C6.29419 20.7516 6.22417 20.9974 6.09686 21.2143C5.96955 21.4313 5.78913 21.6123 5.57259 21.7403C4.99175 22.1059 4.47925 22.48 4.08292 22.9942C3.70728 23.4837 3.43173 24.0423 3.27198 24.6382C3.11223 25.2341 3.07142 25.8556 3.15188 26.4673C3.22192 27.0003 3.40813 27.482 3.64729 27.9706C3.87792 28.4387 4.19396 28.9871 4.57492 29.6448L4.61763 29.72C4.99688 30.3777 5.31463 30.926 5.60504 31.36C5.90742 31.8092 6.232 32.2141 6.65909 32.5387C7.14837 32.9146 7.70691 33.1905 8.30282 33.3505C8.89874 33.5106 9.52034 33.5517 10.1321 33.4715C10.7745 33.386 11.3553 33.1298 11.9635 32.8069C12.1823 32.684 12.4288 32.6187 12.6799 32.6172C12.9309 32.6158 13.1781 32.6781 13.3985 32.7984C13.6139 32.9284 13.7925 33.1115 13.9172 33.33C14.0419 33.5486 14.1086 33.7955 14.1108 34.0472C14.1365 34.7339 14.2031 35.366 14.4525 35.9639C14.6884 36.5341 15.0343 37.0522 15.4705 37.4886C15.9066 37.9251 16.4245 38.2713 16.9945 38.5076C17.4899 38.7126 18.0024 38.7929 18.544 38.8288C19.0633 38.8647 19.6971 38.8647 20.4573 38.8647H20.5427C21.3029 38.8647 21.9367 38.8647 22.456 38.8305C22.9993 38.7929 23.5101 38.7126 24.0055 38.5059C24.5757 38.27 25.0938 37.9241 25.5302 37.4879C25.9667 37.0518 26.3129 36.5339 26.5492 35.9639C26.7969 35.366 26.8635 34.7339 26.8909 34.0472C26.8933 33.7957 26.9597 33.549 27.0837 33.3303C27.2077 33.1115 27.3853 32.9279 27.5998 32.7967C27.8206 32.6765 28.0682 32.6144 28.3195 32.6162C28.5708 32.618 28.8176 32.6836 29.0365 32.8069C29.6447 33.1281 30.2255 33.386 30.8679 33.4697C32.103 33.6327 33.3523 33.2984 34.3409 32.5404C34.768 32.2124 35.0926 31.8092 35.395 31.36C35.6854 30.926 36.0031 30.3777 36.3824 29.72L36.4251 29.6448C36.806 28.9871 37.1221 28.4387 37.351 27.9706C37.5902 27.482 37.7781 26.9986 37.8464 26.4673C38.0094 25.2322 37.6751 23.9829 36.9171 22.9942C36.5225 22.48 36.0083 22.1059 35.4274 21.7403C35.2109 21.6123 35.0305 21.4313 34.9031 21.2143C34.7758 20.9974 34.7058 20.7516 34.6997 20.5001C34.6997 20.0252 34.9593 19.5537 35.4274 19.2598C36.0083 18.8942 36.5208 18.5201 36.9171 18.0059C37.2927 17.5165 37.5683 16.9579 37.728 16.362C37.8878 15.7661 37.9286 15.1446 37.8481 14.5329C37.7668 14.0079 37.5994 13.5 37.3527 13.0295C37.061 12.4619 36.7517 11.9036 36.4251 11.3554L36.3824 11.2802C36.0703 10.7234 35.741 10.1765 35.395 9.64021C35.1109 9.19197 34.7547 8.7937 34.3409 8.46146C33.8516 8.08552 33.2931 7.80966 32.6972 7.64962C32.1013 7.48957 31.4797 7.44849 30.8679 7.52871C30.2255 7.61412 29.6447 7.87037 29.0365 8.19325C28.8176 8.316 28.5711 8.38118 28.3201 8.38267C28.0692 8.38416 27.8219 8.32193 27.6015 8.20179C27.3866 8.07113 27.2085 7.88796 27.0839 7.6695C26.9593 7.45105 26.8923 7.20448 26.8892 6.953C26.8635 6.26625 26.7969 5.63416 26.5475 5.03625C26.3116 4.46609 25.9657 3.94799 25.5295 3.51154C25.0934 3.07508 24.5755 2.72883 24.0055 2.49254C23.5101 2.28754 22.9976 2.20725 22.456 2.17137C21.9367 2.1355 21.3029 2.1355 20.5427 2.1355H20.4573ZM17.9751 4.86029C18.1066 4.80562 18.3065 4.75608 18.7182 4.72704C19.1402 4.698 19.6868 4.698 20.5 4.698C21.3132 4.698 21.8598 4.698 22.2818 4.72704C22.6935 4.75608 22.8934 4.80562 23.0249 4.86029C23.5494 5.07725 23.9645 5.49237 24.1815 6.01683C24.2498 6.18083 24.3062 6.43879 24.3284 7.04866C24.3796 8.40166 25.0783 9.70512 26.3186 10.4209C27.5588 11.1384 29.0365 11.0906 30.2341 10.4585C30.7739 10.1732 31.025 10.0929 31.2027 10.0707C31.764 9.99654 32.3318 10.1483 32.7812 10.4927C32.894 10.5798 33.0375 10.7284 33.2681 11.0701C33.5055 11.422 33.7789 11.8952 34.1855 12.599C34.592 13.3029 34.8637 13.7778 35.0499 14.157C35.2327 14.5277 35.289 14.7259 35.3061 14.8677C35.3803 15.429 35.2285 15.9968 34.8842 16.4462C34.7748 16.588 34.5801 16.7657 34.0642 17.0902C32.9162 17.8112 32.1372 19.0685 32.1372 20.5001C32.1372 21.9317 32.9162 23.189 34.0642 23.9099C34.5801 24.2345 34.7748 24.4122 34.8842 24.554C35.2293 25.0032 35.3796 25.5704 35.3061 26.1325C35.289 26.2742 35.231 26.4741 35.0499 26.8431C34.8637 27.2241 34.592 27.6973 34.1855 28.4011C33.7789 29.105 33.5038 29.5782 33.2681 29.9301C33.0375 30.2717 32.894 30.4204 32.7812 30.5075C32.3318 30.8518 31.764 31.0036 31.2027 30.9295C31.025 30.9072 30.7756 30.827 30.2341 30.5417C29.0383 29.9096 27.5588 29.8617 26.3186 30.5775C25.0783 31.295 24.3796 32.5985 24.3284 33.9515C24.3062 34.5614 24.2498 34.8193 24.1815 34.9833C24.0741 35.2427 23.9168 35.4783 23.7183 35.6767C23.5199 35.8752 23.2842 36.0326 23.0249 36.1399C22.8934 36.1945 22.6935 36.2441 22.2818 36.2731C21.8598 36.3022 21.3132 36.3022 20.5 36.3022C19.6868 36.3022 19.1402 36.3022 18.7182 36.2731C18.3065 36.2441 18.1066 36.1945 17.9751 36.1399C17.7158 36.0326 17.4801 35.8752 17.2817 35.6767C17.0832 35.4783 16.9259 35.2427 16.8185 34.9833C16.7502 34.8193 16.6938 34.5614 16.6716 33.9515C16.6204 32.5985 15.9217 31.295 14.6814 30.5792C13.4412 29.8617 11.9635 29.9096 10.7659 30.5417C10.2261 30.827 9.97496 30.9072 9.79729 30.9295C9.23599 31.0036 8.66822 30.8518 8.21879 30.5075C8.10604 30.4204 7.96254 30.2717 7.73192 29.9301C7.4106 29.4299 7.10467 28.92 6.81454 28.4011C6.40796 27.6973 6.13634 27.2224 5.95013 26.8431C5.76734 26.4724 5.71096 26.2742 5.69388 26.1325C5.61971 25.5712 5.77148 25.0034 6.11584 24.554C6.22517 24.4122 6.41992 24.2345 6.93584 23.9099C8.08384 23.189 8.86284 21.9317 8.86284 20.5001C8.86284 19.0685 8.08384 17.8112 6.93584 17.0902C6.41992 16.7657 6.22517 16.588 6.11584 16.4462C5.77148 15.9968 5.61971 15.429 5.69388 14.8677C5.71096 14.7259 5.76904 14.526 5.95013 14.157C6.13634 13.7761 6.40796 13.3029 6.81454 12.599C7.22113 11.8952 7.49617 11.422 7.73192 11.0701C7.96254 10.7284 8.10604 10.5798 8.21879 10.4927C8.66822 10.1483 9.23599 9.99654 9.79729 10.0707C9.97496 10.0929 10.2244 10.1732 10.7659 10.4585C11.9618 11.0906 13.4412 11.1384 14.6814 10.4209C15.9217 9.70512 16.6204 8.40166 16.6716 7.04866C16.6938 6.43879 16.7502 6.18083 16.8185 6.01683C17.0355 5.49237 17.4506 5.07725 17.9751 4.86029Z" fill="black"/>
</g>
</g>
</svg>
